name rise49.8558peak67.6521fall70.3087.mot
datacolumns 19
datarows 20
range 7.97497400000000 8.00663300000000
endheader
time	ground_force1_vx	ground_force1_vy	ground_force1_vz	ground_force1_px	ground_force1_py	ground_force1_pz	ground_force2_vx	ground_force2_vy	ground_force2_vz	ground_force2_px	ground_force2_py	ground_force2_pz	ground_torque1_x	ground_torque1_y	ground_torque1_z	ground_torque2_x	ground_torque2_y	ground_torque2_z	
7.97497400000000	-4.06115100000000	42.39430700000000	-10.75934700000000	0.36569000000000	0.00000000000000	0.07941300000000	-64.01054999999999	798.66916100000003	-62.57875000000000	0.14285700000000	0.00000000000000	-0.11368700000000	0.00000000000000	-9.23238500000000	0.00000000000000	0.00000000000000	-29.63589800000000	0.00000000000000	
7.97663800000000	-4.36771100000000	49.67967200000000	-12.15282200000000	0.36940600000000	0.00000000000000	0.08053700000000	-64.43326900000000	796.07442300000002	-62.27614500000000	0.14181700000000	0.00000000000000	-0.11367400000000	0.00000000000000	-10.49299600000000	0.00000000000000	0.00000000000000	-29.52831700000000	0.00000000000000	
7.97830500000000	-4.57171200000000	57.05218900000000	-13.43796700000000	0.37292600000000	0.00000000000000	0.08154900000000	-64.85701200000000	793.36668599999996	-61.95879300000000	0.14078100000000	0.00000000000000	-0.11366100000000	0.00000000000000	-11.67562500000000	0.00000000000000	0.00000000000000	-29.41923600000000	0.00000000000000	
7.97997300000000	-4.66086700000000	64.41577800000000	-14.58619200000000	0.37628000000000	0.00000000000000	0.08246700000000	-65.28150800000000	790.54533400000003	-61.62652500000000	0.13975100000000	0.00000000000000	-0.11364700000000	0.00000000000000	-12.75490200000000	0.00000000000000	0.00000000000000	-29.30867700000000	0.00000000000000	
7.98163900000000	-4.62797700000000	71.69754900000000	-15.57805300000000	0.37948900000000	0.00000000000000	0.08330500000000	-65.70645600000000	787.60976000000005	-61.27916500000000	0.13872700000000	0.00000000000000	-0.11363300000000	0.00000000000000	-13.71303900000000	0.00000000000000	0.00000000000000	-29.19665100000000	0.00000000000000	
7.98330700000000	-4.47080500000000	78.85004800000000	-16.40344200000000	0.38257100000000	0.00000000000000	0.08407500000000	-66.13152300000000	784.55937100000006	-60.91653600000000	0.13771100000000	0.00000000000000	-0.11361800000000	0.00000000000000	-14.54013000000000	0.00000000000000	0.00000000000000	-29.08316400000000	0.00000000000000	
7.98496600000000	-4.19157600000000	85.85102999999999	-17.06098500000000	0.38554100000000	0.00000000000000	0.08478600000000	-66.55634900000000	781.39358500000003	-60.53845800000000	0.13670400000000	0.00000000000000	-0.11360200000000	0.00000000000000	-15.23376200000000	0.00000000000000	0.00000000000000	-28.96821600000000	0.00000000000000	
7.98663900000000	-3.79619500000000	92.70119099999999	-17.55682700000000	0.38841100000000	0.00000000000000	0.08544600000000	-66.98054300000000	778.11183600000004	-60.14475100000000	0.13570700000000	0.00000000000000	-0.11358500000000	0.00000000000000	-15.79806800000000	0.00000000000000	0.00000000000000	-28.85179700000000	0.00000000000000	
7.98830200000000	-3.29330600000000	99.42041399999999	-17.90301600000000	0.39119000000000	0.00000000000000	0.08606100000000	-67.40368500000000	774.71357300000000	-59.73523200000000	0.13472100000000	0.00000000000000	-0.11356600000000	0.00000000000000	-16.24241500000000	0.00000000000000	0.00000000000000	-28.73389300000000	0.00000000000000	
7.98997100000000	-2.69328900000000	106.04307799999999	-18.11568000000000	0.39388600000000	0.00000000000000	0.08663700000000	-67.82532600000000	771.19826499999999	-59.30972300000000	0.13374700000000	0.00000000000000	-0.11354600000000	0.00000000000000	-16.57988100000000	0.00000000000000	0.00000000000000	-28.61448100000000	0.00000000000000	
7.99164600000000	-2.00729200000000	112.61300199999999	-18.21319300000000	0.39650600000000	0.00000000000000	0.08717900000000	-68.24499000000000	767.56539899999996	-58.86804600000000	0.13278700000000	0.00000000000000	-0.11352500000000	0.00000000000000	-16.82568800000000	0.00000000000000	0.00000000000000	-28.49353300000000	0.00000000000000	
7.99330600000000	-1.24637600000000	119.17847900000000	-18.21447700000000	0.39905500000000	0.00000000000000	0.08768900000000	-68.66217100000000	763.81448699999999	-58.41003000000000	0.13184200000000	0.00000000000000	-0.11350100000000	0.00000000000000	-16.99573500000000	0.00000000000000	0.00000000000000	-28.37101500000000	0.00000000000000	
7.99497000000000	-0.42081300000000	125.78780100000000	-18.13755300000000	0.40153800000000	0.00000000000000	0.08817300000000	-69.07633800000001	759.94506600000000	-57.93550800000000	0.13091200000000	0.00000000000000	-0.11347500000000	0.00000000000000	-17.10531300000000	0.00000000000000	0.00000000000000	-28.24688500000000	0.00000000000000	
7.99665100000000	0.46043100000000	132.48552699999999	-17.99841300000000	0.40395800000000	0.00000000000000	0.08863200000000	-69.48693100000000	755.95670399999995	-57.44432100000000	0.12999900000000	0.00000000000000	-0.11344700000000	0.00000000000000	-17.16809500000000	0.00000000000000	0.00000000000000	-28.12109500000000	0.00000000000000	
7.99830100000000	1.39001300000000	139.30965699999999	-17.81024400000000	0.40631900000000	0.00000000000000	0.08906900000000	-69.89336400000001	751.84899700000005	-56.93631900000000	0.12910300000000	0.00000000000000	-0.11341700000000	0.00000000000000	-17.19541700000000	0.00000000000000	0.00000000000000	-27.99359300000000	0.00000000000000	
7.99996900000000	2.36235700000000	146.28977200000000	-17.58299700000000	0.40862300000000	0.00000000000000	0.08948600000000	-70.29502599999999	747.62157800000000	-56.41136400000000	0.12822700000000	0.00000000000000	-0.11338300000000	0.00000000000000	-17.19585800000000	0.00000000000000	0.00000000000000	-27.86432000000000	0.00000000000000	
8.00164000000000	3.37362700000000	153.44609399999999	-17.32328700000000	0.41087300000000	0.00000000000000	0.08988400000000	-70.69127800000000	743.27411900000004	-55.86932700000000	0.12737000000000	0.00000000000000	-0.11334700000000	0.00000000000000	-17.17510600000000	0.00000000000000	0.00000000000000	-27.73321000000000	0.00000000000000	
8.00330100000000	4.42157000000000	160.78939199999999	-17.03455000000000	0.41306900000000	0.00000000000000	0.09026600000000	-71.08145800000000	738.80633200000000	-55.31009900000000	0.12653400000000	0.00000000000000	-0.11330800000000	0.00000000000000	-17.13605800000000	0.00000000000000	0.00000000000000	-27.60019200000000	0.00000000000000	
8.00496900000000	5.50527200000000	168.32156200000000	-16.71742200000000	0.41521500000000	0.00000000000000	0.09063300000000	-71.46487900000000	734.21797600000002	-54.73358200000000	0.12572000000000	0.00000000000000	-0.11326500000000	0.00000000000000	-17.07912100000000	0.00000000000000	0.00000000000000	-27.46519200000000	0.00000000000000	
8.00663300000000	6.62484500000000	176.03673100000000	-16.37024800000000	0.41731000000000	0.00000000000000	0.09098700000000	-71.84082900000000	729.50885600000004	-54.13969800000000	0.12492800000000	0.00000000000000	-0.11321800000000	0.00000000000000	-17.00263700000000	0.00000000000000	0.00000000000000	-27.32812700000000	0.00000000000000	
